<?xml version="1.0" encoding="UTF-8"?>
<svg xmlns="http://www.w3.org/2000/svg" width="1200pt" height="1200pt" version="1.1" viewBox="0 0 1200 1200">
  <path d="m1041.8 1052.7h-409.09l-141.82-569.09c38.184-5.4531 80 1.8164 114.55 23.637 9.0898 5.4531 20 1.8164 25.453-5.4531 49.09-81.816 156.36-109.09 240-60 5.4531 3.6367 14.547 3.6367 20 0 5.4531-3.6367 9.0898-10.91 7.2734-18.184-41.816-236.36-270.91-392.73-509.09-343.64l-10.91-45.453c-1.8164-9.0898-12.727-16.363-21.816-12.727-9.0898 1.8164-16.363 12.727-12.727 21.816l10.91 45.453c-234.55 65.457-361.82 314.55-287.28 540 5.4531 14.547 25.453 16.363 32.727 3.6367 50.91-81.816 158.18-109.09 240-60 9.0898 5.4531 20 1.8164 25.453-5.4531 21.816-36.363 54.547-61.816 90.91-74.547l140 558.18h-218.18c-61.816 0-110.91 50.91-110.91 110.91 0 10.91 7.2734 18.184 18.184 18.184h852.73c10.91 0 18.184-7.2734 18.184-18.184-3.6367-60.004-52.727-109.09-114.55-109.09zm-187.27-660c-81.816-29.09-172.73-5.4531-230.91 58.184-29.09-107.27-92.727-276.36-174.55-345.45 183.64-12.73 354.55 103.63 405.46 287.27zm-761.82 190.91c-41.816-183.64 54.547-369.09 223.64-443.64-32.727 81.816-25.453 238.18 7.2734 387.27-81.82-30.91-172.73-9.0898-230.91 56.363zm265.46-67.273c-47.273-216.36-29.09-387.27 21.816-400 83.637-21.816 185.45 260 207.27 341.82-80-29.09-170.91-5.4531-229.09 58.184zm-54.547 629.09c7.2734-32.727 38.184-56.363 72.727-56.363h665.45c34.547 0 65.453 23.637 72.727 56.363z" fill="#286fff"></path>
</svg>
